<svg width="163" height="49" viewBox="0 0 163 49" fill="none" xmlns="http://www.w3.org/2000/svg">
<path d="M56.3298 24.5433C56.3298 17.9676 59.6897 14.8529 66.8478 14.8529H72.4282L72.9833 18.6021H66.8478C62.7575 18.6021 60.8292 20.5056 60.8292 24.5433C60.8292 28.5809 62.7575 30.4844 66.8478 30.4844H72.9833L72.4282 34.2337H66.8478C59.6897 34.2337 56.3298 31.1189 56.3298 24.5433Z" fill="#181A29"/>
<path d="M95.1004 14.8529L87.767 34.2337H81.164L73.7722 14.8529H78.4469L84.261 30.6574H84.6408L90.4257 14.8529H95.1004Z" fill="#181A29"/>
<path d="M96.6489 24.5433C96.6489 17.9676 99.9504 14.8529 106.933 14.8529H112.747L113.069 16.9294H106.933C101.616 16.9294 99.0739 19.3808 99.0739 24.5433C99.0739 29.7057 101.586 32.1571 106.933 32.1571H113.069L112.747 34.2337H106.933C99.9504 34.2337 96.6489 31.1189 96.6489 24.5433Z" fill="#181A29"/>
<path d="M130.569 34.2337L124.931 27.4273H119.058V34.2337H116.662V14.8529H125.31C130.569 14.8529 133.111 17.3043 133.111 21.1401C133.111 24.9759 131.329 26.5909 127.648 27.2254L133.491 34.2337H130.569ZM130.686 21.1401C130.686 18.5156 129.021 16.9294 125.194 16.9294H119.087V25.3508H125.194C129.021 25.3508 130.686 23.7934 130.686 21.1401Z" fill="#181A29"/>
<path d="M157.946 14.8529V34.2337H155.696V18.631L148.45 27.3985H146.785L139.539 18.631V34.2337H137.289V14.8529H139.188L147.603 25.1489L156.017 14.8529H157.946Z" fill="#181A29"/>
<path d="M43.3868 5.01825H16.4782C10.1966 5.01825 5.08371 10.0653 5.08371 16.266V42.9723C5.08371 43.5203 5.52196 43.9529 6.07708 43.9529H33.3947C39.5302 43.9529 44.5263 39.0789 44.5263 33.0512V6.17187C44.5263 5.53738 44.0004 5.04709 43.3868 5.04709V5.01825ZM24.805 34.2048L11.6575 24.4856L24.805 14.7663L37.9525 24.4856L24.805 34.2048Z" fill="url(#paint0_linear_301_288)"/>
<path d="M44.5263 19.6115V29.3596L24.805 43.9529V34.2048L37.9525 24.4856L44.5263 19.6115Z" fill="#24695B"/>
<path d="M24.805 5.01825V14.7663L11.6575 24.4856L5.08371 29.3596V19.6115L24.805 5.01825Z" fill="#24695B"/>
<path d="M24.805 34.2048V43.9529L5.08371 29.3596V19.6115L11.6575 24.4856L24.805 34.2048Z" fill="#41B28E"/>
<defs>
<linearGradient id="paint0_linear_301_288" x1="9.69995" y1="38.1848" x2="38.3409" y2="11.6856" gradientUnits="userSpaceOnUse">
<stop stop-color="#24695B"/>
<stop offset="1" stop-color="#00AF86"/>
</linearGradient>
</defs>
</svg>
