<svg width="660" height="201" viewBox="0 0 660 201" fill="none" xmlns="http://www.w3.org/2000/svg">
<path d="M228.084 100.677C228.084 73.7039 241.688 60.927 270.672 60.927H293.268L295.515 76.3066H270.672C254.11 76.3066 246.302 84.1148 246.302 100.677C246.302 117.24 254.11 125.048 270.672 125.048H295.515L293.268 140.428H270.672C241.688 140.428 228.084 127.651 228.084 100.677Z" fill="white"/>
<path d="M385.069 60.927L355.376 140.428H328.64L298.709 60.927H317.638L341.179 125.758H342.717L366.141 60.927H385.069Z" fill="white"/>
<path d="M391.339 100.677C391.339 73.7039 404.707 60.927 432.981 60.927H456.523L457.824 69.445H432.981C411.45 69.445 401.158 79.5009 401.158 100.677C401.158 121.854 411.332 131.91 432.981 131.91H457.824L456.523 140.428H432.981C404.707 140.428 391.339 127.651 391.339 100.677Z" fill="white"/>
<path d="M528.686 140.428L505.854 112.508H482.076V140.428H472.375V60.927H507.392C528.686 60.927 538.978 70.9829 538.978 86.7175C538.978 102.452 531.762 109.077 516.856 111.68L540.516 140.428H528.686ZM529.159 86.7175C529.159 75.9517 522.416 69.445 506.919 69.445H482.194V103.99H506.919C522.416 103.99 529.159 97.6015 529.159 86.7175Z" fill="white"/>
<path d="M639.534 60.927V140.428H630.425V76.4249L601.086 112.39H594.343L565.004 76.4249V140.428H555.895V60.927H563.585L597.655 103.162L631.726 60.927H639.534Z" fill="white"/>
<path d="M175.677 20.585H66.7217C41.287 20.585 20.5844 41.2884 20.5844 66.7239V176.274C20.5844 178.522 22.3589 180.297 24.6066 180.297H135.218C160.061 180.297 180.29 160.303 180.29 135.577V25.3172C180.29 22.7145 178.161 20.7033 175.677 20.7033V20.585ZM100.437 140.31L47.202 100.441L100.437 60.5721L153.673 100.441L100.437 140.31Z" fill="url(#paint0_linear_3120_985)"/>
<path d="M180.29 80.4473V120.434L100.437 180.297V140.31L153.673 100.441L180.29 80.4473Z" fill="#24695B"/>
<path d="M100.437 20.585V60.5721L47.202 100.441L20.5844 120.434V80.4473L100.437 20.585Z" fill="#24695B"/>
<path d="M100.437 140.31V180.297L20.5844 120.434V80.4473L47.202 100.441L100.437 140.31Z" fill="#41B28E"/>
<defs>
<linearGradient id="paint0_linear_3120_985" x1="39.2759" y1="156.636" x2="156.634" y2="49.4555" gradientUnits="userSpaceOnUse">
<stop stop-color="#24695B"/>
<stop offset="1" stop-color="#00AF86"/>
</linearGradient>
</defs>
</svg>
