<svg width="22" height="22" viewBox="0 0 22 22" fill="none" xmlns="http://www.w3.org/2000/svg">
<g clip-path="url(#clip0_22271_14786)">
<path fill-rule="evenodd" clip-rule="evenodd" d="M0 10.8543L5.33363 7.93173C5.09774 7.39889 4.98259 6.82268 4.99603 6.24248V6.20275C4.97844 5.64489 5.0768 5.08933 5.2852 4.56951C5.49359 4.04968 5.80772 3.57635 6.20866 3.17799C7.05459 2.3589 8.22259 1.89166 9.40224 1.70249V0H12.5958V1.77059C13.3728 1.90441 14.1286 2.13586 14.8445 2.45916C15.5482 2.78533 16.2121 3.18763 16.8235 3.65847L17.0176 3.80224L14.6214 6.76457L14.4274 6.62838C13.7452 6.11488 12.9773 5.72003 12.1573 5.46122C11.6332 5.29981 11.0869 5.2169 10.5373 5.21531C10.2223 5.20041 9.90926 5.27114 9.63313 5.4196C9.55169 5.4709 9.48541 5.54204 9.44083 5.62598C9.39625 5.70992 9.37492 5.80375 9.37896 5.89819C9.37782 6.01304 9.41245 6.12551 9.47827 6.22076C9.54409 6.316 9.638 6.38954 9.7476 6.43164C10.0891 6.62081 10.6711 6.78727 11.6141 6.99914C13.2516 7.34342 14.5845 7.7785 15.5217 8.45761C16.4918 9.15942 17.0176 10.109 17.0176 11.4653V11.5051C17.0357 12.2677 16.8413 13.0209 16.4549 13.6843C16.3863 13.7982 16.3118 13.9087 16.2318 14.0153L22.0039 10.8543V15.9732L10.999 22L10.6867 19.1814L10.9253 17.4241C10.6816 17.5315 10.4167 17.5857 10.1492 17.583C9.17912 17.46 7.70456 16.9928 6.26881 16.2588C5.10702 15.6831 4.05663 14.915 3.16448 13.9888L3.0306 13.8432L3.61266 13.1243L0 11.1608V10.8581V10.8543ZM9.79804 10.6065L8.14887 11.5126C8.43214 11.6905 8.71735 11.8607 8.99674 12.0158C9.84073 12.4831 10.609 12.8141 11.0087 12.8103C11.4162 12.7664 11.8059 12.6233 12.1418 12.3942C12.4173 12.2144 12.6288 12.0158 12.6307 11.8267C12.6298 11.7188 12.5963 11.6137 12.5346 11.5242C12.4728 11.4348 12.3855 11.365 12.2834 11.3235C11.9536 11.1343 11.3851 10.9565 10.4597 10.756C10.2372 10.7068 10.0192 10.6563 9.8058 10.6046L9.79804 10.6065ZM12.1263 1.96543V0.465348H9.87953V2.09974L9.67387 2.12812C8.50975 2.28512 7.3592 2.71642 6.55402 3.50525C6.1955 3.86136 5.91486 4.28474 5.7291 4.74971C5.54334 5.21469 5.45632 5.71159 5.47332 6.21032V6.24248C5.47332 7.55529 6.00882 8.40275 6.88967 8.99673C7.80351 9.61341 9.09569 9.97472 10.5586 10.3001C11.5287 10.5195 12.1418 10.7125 12.5163 10.9281C12.9567 11.1816 13.0983 11.4635 13.0983 11.8323C13.0983 12.2012 12.7937 12.519 12.3999 12.7782C11.9857 13.0564 11.5055 13.2269 11.0049 13.2738C10.5159 13.2738 9.66223 12.9219 8.75615 12.4187C7.84572 11.9129 6.98229 11.3306 6.17568 10.6784L3.63595 13.8242C4.46753 14.6407 5.42779 15.3221 6.48029 15.8426C7.86754 16.5558 9.28195 17.0041 10.2016 17.1214C10.4781 17.1119 10.7487 17.0414 10.9932 16.9152V16.8793L14.0005 15.2316L14.5826 14.8533C15.1714 14.4995 15.6671 14.0162 16.03 13.4421C16.3734 12.8498 16.5457 12.1777 16.5286 11.4975V11.4578C16.5286 10.2641 16.063 9.43371 15.2248 8.82081C14.3556 8.1871 13.0906 7.77472 11.5054 7.4399C10.5198 7.22992 9.89505 7.04643 9.50701 6.83457C9.05494 6.58487 8.90361 6.29923 8.90361 5.88874C8.89787 5.71772 8.93798 5.54821 9.01998 5.39693C9.10198 5.24566 9.22304 5.11785 9.3712 5.02614C9.72395 4.82623 10.1276 4.72785 10.5353 4.74239C11.1324 4.74386 11.7257 4.83379 12.2951 5.00911C13.0975 5.26127 13.853 5.63815 14.5321 6.12519L16.3404 3.88925C15.812 3.49807 15.2438 3.16084 14.6447 2.88289C13.9055 2.54776 13.1218 2.31534 12.3164 2.19243L12.1224 2.16028L12.1263 1.96543Z" fill="#266B5E"/>
<path fill-rule="evenodd" clip-rule="evenodd" d="M10.999 16.8792L0 10.8542V15.9731L10.999 21.9999V16.8792Z" fill="#3DBB95"/>
</g>
<defs>
<clipPath id="clip0_22271_14786">
<rect width="22" height="22" fill="white"/>
</clipPath>
</defs>
</svg>
